<svg xmlns="http://www.w3.org/2000/svg" width="124" height="24" fill="none"><path stroke="#00C808" stroke-width="2" d="m21.416 10.448.846.868c.37.381.37.985 0 1.366l-.845.868a2.838 2.838 0 0 0-.778 2.38l.17 1.197a.983.983 0 0 1-.807 1.104l-1.197.21a2.868 2.868 0 0 0-2.038 1.47l-.57 1.067a.992.992 0 0 1-1.306.422l-1.092-.53a2.887 2.887 0 0 0-2.518 0l-1.092.53a.991.991 0 0 1-1.307-.422l-.57-1.066a2.867 2.867 0 0 0-2.037-1.472l-1.197-.209a.983.983 0 0 1-.808-1.105l.17-1.195a2.838 2.838 0 0 0-.778-2.38l-.845-.869a.976.976 0 0 1 0-1.365l.845-.868c.615-.632.903-1.51.778-2.38l-.17-1.196a.982.982 0 0 1 .808-1.104l1.197-.21a2.865 2.865 0 0 0 2.038-1.47l.57-1.067a.99.99 0 0 1 1.305-.422l1.092.53a2.886 2.886 0 0 0 2.52 0l1.09-.53a.991.991 0 0 1 1.306.42l.57 1.067a2.867 2.867 0 0 0 2.038 1.47l1.197.21c.525.092.882.58.808 1.105l-.17 1.196c-.125.87.163 1.748.777 2.38Z"></path><path fill="#00C808" d="M10.967 15.072 8.814 12.92a.94.94 0 0 1 1.327-1.327l1.49 1.489 4.306-4.306a.94.94 0 0 1 1.327 1.327l-4.97 4.97a.94.94 0 0 1-1.327 0Z"></path><path fill="#00C808" d="M31.333 10h-1.406l2.56-7.273h1.627L36.677 10h-1.406L33.33 4.219h-.057L31.332 10Zm.046-2.852h3.835v1.059H31.38V7.148ZM37.435 10V2.727h2.728c.558 0 1.027.104 1.406.313.381.208.669.495.863.86.196.361.294.773.294 1.235 0 .466-.098.88-.294 1.243a2.105 2.105 0 0 1-.87.856c-.384.206-.856.309-1.417.309h-1.808V6.46h1.63c.327 0 .595-.057.803-.17.208-.115.362-.27.461-.47.102-.199.153-.427.153-.685 0-.258-.05-.485-.153-.682-.099-.196-.254-.35-.465-.458-.208-.111-.477-.167-.806-.167h-1.207V10h-1.318Zm6.236 0V2.727h2.727c.559 0 1.028.104 1.406.313.381.208.67.495.863.86.197.361.295.773.295 1.235 0 .466-.098.88-.295 1.243a2.106 2.106 0 0 1-.87.856c-.383.206-.856.309-1.417.309h-1.807V6.46h1.63c.326 0 .594-.057.802-.17.209-.115.363-.27.462-.47.102-.199.153-.427.153-.685 0-.258-.051-.485-.153-.682-.1-.196-.255-.35-.465-.458-.209-.111-.477-.167-.806-.167h-1.208V10h-1.317Zm6.235 0V2.727h2.728c.558 0 1.027.097 1.406.291.381.195.669.467.863.817.196.348.295.754.295 1.218 0 .467-.1.871-.299 1.215-.196.34-.486.605-.87.792-.383.184-.854.277-1.413.277h-1.943V6.243h1.765c.327 0 .595-.045.803-.135a.956.956 0 0 0 .462-.401c.101-.178.152-.396.152-.654s-.05-.478-.152-.66a.971.971 0 0 0-.466-.42c-.208-.096-.477-.145-.806-.145h-1.207V10h-1.318Zm3.758-3.295 1.8 3.295h-1.47l-1.769-3.295h1.438Zm9.045-.341c0 .783-.147 1.454-.44 2.013a3.119 3.119 0 0 1-1.194 1.279c-.502.295-1.07.443-1.708.443a3.318 3.318 0 0 1-1.711-.443 3.175 3.175 0 0 1-1.194-1.282c-.29-.56-.436-1.23-.436-2.01 0-.784.145-1.454.436-2.01a3.145 3.145 0 0 1 1.194-1.282 3.318 3.318 0 0 1 1.711-.444c.637 0 1.207.148 1.708.444.505.296.902.723 1.194 1.282.293.556.44 1.226.44 2.01Zm-1.325 0c0-.552-.086-1.017-.259-1.396-.17-.381-.407-.669-.71-.863a1.882 1.882 0 0 0-1.048-.295c-.395 0-.744.099-1.047.295-.303.194-.541.482-.714.863-.17.379-.256.844-.256 1.396 0 .551.085 1.018.256 1.399.173.379.41.666.714.863a1.9 1.9 0 0 0 1.047.29 1.9 1.9 0 0 0 1.048-.29c.303-.197.54-.484.71-.863.173-.381.26-.848.26-1.4Zm2.953-3.637 1.893 5.725h.074l1.89-5.725h1.448L67.078 10h-1.626l-2.56-7.273h1.445ZM70.4 10V2.727h4.73v1.105h-3.412v1.974h3.167v1.105h-3.167v1.985h3.44V10H70.4Zm8.339 0h-2.465V2.727h2.515c.722 0 1.342.146 1.86.437.521.289.921.704 1.2 1.247.28.542.42 1.19.42 1.946 0 .757-.141 1.408-.423 1.953a2.92 2.92 0 0 1-1.21 1.253c-.526.291-1.158.437-1.897.437Zm-1.147-1.14h1.083c.507 0 .93-.092 1.268-.277.338-.187.593-.465.763-.834.17-.372.256-.836.256-1.392 0-.557-.085-1.018-.256-1.385a1.744 1.744 0 0 0-.756-.828c-.332-.184-.744-.277-1.236-.277h-1.122V8.86Zm13.986-6.133V10h-1.172l-3.427-4.954h-.06V10H85.6V2.727h1.179l3.423 4.958h.064V2.727h1.31Zm1.235 0h1.612l2.16 5.27h.085l2.159-5.27h1.612V10h-1.264V5.004h-.068L97.1 9.979h-.944l-2.01-4.986h-.068V10h-1.264V2.727Zm9.836 0 1.892 5.725h.075l1.889-5.725h1.449L105.39 10h-1.626l-2.561-7.273h1.446Zm5.743 1.105V2.727h5.803v1.105h-2.248V10h-1.307V3.832h-2.248Zm8.039-1.105V10h-1.318V2.727h1.318Zm5.179 2a.97.97 0 0 0-.419-.725c-.244-.173-.561-.26-.952-.26-.274 0-.51.042-.706.125a1.042 1.042 0 0 0-.451.338.812.812 0 0 0-.16.486c0 .152.034.283.103.394a.947.947 0 0 0 .287.284c.121.076.255.14.402.192.146.052.294.096.444.131l.681.17c.275.065.539.151.792.26.256.11.484.246.686.412.203.166.364.366.483.6.118.235.177.51.177.824 0 .426-.109.801-.327 1.126-.217.322-.532.574-.944.756-.41.18-.906.27-1.488.27-.566 0-1.057-.087-1.474-.263a2.2 2.2 0 0 1-.973-.767c-.232-.336-.357-.745-.376-1.228h1.296c.019.253.097.464.234.632.138.168.316.293.537.376.222.083.471.124.745.124.287 0 .538-.042.753-.127.218-.088.388-.209.511-.363a.874.874 0 0 0 .189-.547.698.698 0 0 0-.167-.468 1.227 1.227 0 0 0-.458-.313 4.429 4.429 0 0 0-.682-.227l-.828-.213c-.598-.154-1.072-.387-1.42-.7-.346-.315-.518-.732-.518-1.253 0-.429.116-.804.348-1.126.234-.322.552-.572.955-.75.402-.18.858-.27 1.367-.27.516 0 .968.09 1.357.27.39.178.697.426.919.743.223.315.338.677.345 1.087h-1.268ZM32.864 21h-2.465v-7.273h2.514c.722 0 1.343.146 1.861.437.52.289.92.704 1.2 1.247.28.542.42 1.19.42 1.946 0 .757-.142 1.408-.423 1.953a2.92 2.92 0 0 1-1.211 1.253c-.526.291-1.158.437-1.896.437Zm-1.148-1.14H32.8c.506 0 .929-.092 1.267-.277.339-.187.593-.465.764-.834.17-.372.255-.836.255-1.392 0-.557-.085-1.018-.255-1.385a1.744 1.744 0 0 0-.757-.828c-.331-.184-.743-.277-1.235-.277h-1.123v4.993ZM37.988 21h-1.406l2.56-7.273h1.627L43.333 21h-1.406l-1.943-5.781h-.057L37.988 21Zm.047-2.852h3.835v1.059h-3.835v-1.059Zm4.857-3.316v-1.105h5.803v1.105h-2.248V21H45.14v-6.168h-2.248ZM49.668 21h-1.406l2.56-7.273h1.627L55.013 21h-1.406l-1.943-5.781h-.057L49.67 21Zm.047-2.852h3.835v1.059h-3.835v-1.059ZM58.05 21v-7.273h2.728c.558 0 1.027.104 1.406.313.381.208.669.495.863.86.196.361.294.773.294 1.235 0 .466-.098.88-.294 1.243a2.106 2.106 0 0 1-.87.856c-.384.206-.856.309-1.417.309h-1.808v-1.084h1.63c.327 0 .595-.056.803-.17.208-.114.362-.27.461-.469.102-.199.153-.427.153-.685 0-.258-.05-.485-.153-.682-.099-.196-.254-.35-.465-.458-.208-.111-.477-.167-.806-.167H59.37V21H58.05Zm6.236 0v-7.273h2.727c.559 0 1.028.097 1.406.291.382.195.67.467.863.817.197.348.295.754.295 1.218 0 .467-.1.871-.298 1.215a1.97 1.97 0 0 1-.87.792c-.384.184-.855.277-1.414.277h-1.942v-1.094h1.765c.326 0 .594-.045.802-.135a.955.955 0 0 0 .462-.401c.102-.178.153-.396.153-.654s-.051-.478-.153-.66a.971.971 0 0 0-.465-.42c-.209-.096-.477-.145-.806-.145h-1.208V21h-1.317Zm3.757-3.296 1.8 3.296h-1.47l-1.768-3.296h1.438Zm9.045-.34c0 .783-.146 1.454-.44 2.013a3.118 3.118 0 0 1-1.193 1.279c-.502.296-1.071.443-1.708.443a3.317 3.317 0 0 1-1.712-.444 3.175 3.175 0 0 1-1.193-1.281c-.291-.56-.437-1.23-.437-2.01 0-.784.146-1.454.437-2.01a3.145 3.145 0 0 1 1.193-1.282 3.318 3.318 0 0 1 1.712-.444c.637 0 1.206.148 1.708.444.504.296.902.723 1.193 1.282.294.556.44 1.226.44 2.01Zm-1.324 0c0-.552-.087-1.017-.26-1.396-.17-.381-.407-.669-.71-.863a1.882 1.882 0 0 0-1.047-.295c-.396 0-.745.099-1.048.295-.303.194-.54.482-.714.863-.17.379-.255.844-.255 1.396 0 .551.085 1.018.255 1.399.173.379.411.666.714.863a1.9 1.9 0 0 0 1.048.29 1.9 1.9 0 0 0 1.047-.29c.303-.197.54-.484.71-.863.173-.381.26-.848.26-1.4Zm2.952-3.637 1.893 5.725h.075l1.889-5.725h1.449L81.459 21h-1.627l-2.56-7.273h1.445Zm7.381 0V21h-1.317v-7.273h1.317ZM89.79 21h-2.464v-7.273h2.514c.722 0 1.342.146 1.86.437.522.289.922.704 1.201 1.247.28.542.42 1.19.42 1.946 0 .757-.142 1.408-.423 1.953a2.92 2.92 0 0 1-1.212 1.253c-.525.291-1.157.437-1.896.437Zm-1.147-1.14h1.083c.507 0 .93-.092 1.268-.277.339-.187.593-.465.764-.834.17-.372.255-.836.255-1.392 0-.557-.085-1.018-.255-1.385a1.744 1.744 0 0 0-.757-.828c-.331-.184-.743-.277-1.236-.277h-1.122v4.993ZM94.371 21v-7.273h4.73v1.105h-3.413v1.974h3.168v1.104h-3.168v1.986h3.441V21h-4.758Zm5.874 0v-7.273h2.727c.559 0 1.028.097 1.407.291.381.195.668.467.863.817.196.348.294.754.294 1.218 0 .467-.099.871-.298 1.215-.197.34-.487.605-.87.792-.384.184-.855.277-1.413.277h-1.943v-1.094h1.765c.327 0 .594-.045.803-.135a.953.953 0 0 0 .461-.401c.102-.178.153-.396.153-.654s-.051-.478-.153-.66a.973.973 0 0 0-.465-.42c-.208-.096-.477-.145-.806-.145h-1.207V21h-1.318Zm3.757-3.296L105.803 21h-1.471l-1.768-3.296h1.438Z"></path></svg>