<svg xmlns="http://www.w3.org/2000/svg" id="prefix__Layer_1" x="0" y="0" viewBox="0 0 256 256" xml:space="preserve"><style>.prefix__st0{fill:#009ade}.prefix__st2{fill:#002f87}</style><path class="prefix__st0" d="M160.64 170.66h-14.53c-.99 0-1.84.72-1.99 1.7l-5.87 37.25c-.12.73.45 1.4 1.2 1.4h7.45c.7 0 1.29-.51 1.4-1.19l1.67-10.56c.15-.98 1-1.7 1.99-1.7h4.6c9.57 0 15.09-4.63 16.53-13.81.65-4.01.03-7.17-1.85-9.38-2.08-2.43-5.74-3.71-10.6-3.71zm1.68 13.6c-.79 5.21-4.78 5.21-8.63 5.21h-2.19l1.54-9.74c.09-.59.6-1.02 1.2-1.02h1c2.62 0 5.1 0 6.38 1.49.75.91.99 2.23.7 4.06z"></path><path class="prefix__st2" d="M57.04 170.66H42.51c-.99 0-1.84.72-1.99 1.7l-5.87 37.25c-.12.73.45 1.4 1.2 1.4h6.94c.99 0 1.84-.72 1.99-1.7l1.59-10.05c.15-.98 1-1.7 1.99-1.7h4.6c9.57 0 15.09-4.63 16.53-13.81.65-4.01.03-7.17-1.85-9.38-2.08-2.43-5.74-3.71-10.6-3.71zm1.67 13.6c-.79 5.21-4.78 5.21-8.63 5.21h-2.19l1.54-9.74c.09-.59.6-1.02 1.2-1.02h1c2.62 0 5.1 0 6.38 1.49.76.91.99 2.23.7 4.06zM100.45 184.1H93.5c-.6 0-1.1.43-1.2 1.02l-.31 1.94-.49-.7c-1.51-2.19-4.86-2.92-8.22-2.92-7.68 0-14.25 5.82-15.53 13.99-.66 4.07.28 7.97 2.59 10.69 2.12 2.5 5.15 3.54 8.76 3.54 6.19 0 9.63-3.98 9.63-3.98l-.31 1.93c-.12.74.45 1.4 1.2 1.4h6.26c.99 0 1.84-.72 1.99-1.7l3.76-23.81c.13-.74-.43-1.4-1.18-1.4zm-9.69 13.53c-.67 3.97-3.83 6.64-7.85 6.64-2.02 0-3.63-.65-4.67-1.88-1.03-1.22-1.42-2.95-1.09-4.89.63-3.94 3.83-6.69 7.79-6.69 1.98 0 3.58.65 4.64 1.9 1.07 1.25 1.48 3 1.18 4.92z"></path><path class="prefix__st0" d="M204.06 184.1h-6.96c-.6 0-1.1.43-1.2 1.02l-.31 1.94-.49-.7c-1.51-2.19-4.86-2.92-8.22-2.92-7.68 0-14.25 5.82-15.53 13.99-.66 4.07.28 7.97 2.59 10.69 2.12 2.5 5.15 3.54 8.76 3.54 6.19 0 9.63-3.98 9.63-3.98l-.31 1.93c-.12.74.45 1.4 1.2 1.4h6.26c.99 0 1.84-.72 1.99-1.7l3.76-23.81c.14-.74-.43-1.4-1.17-1.4zm-9.7 13.53c-.67 3.97-3.83 6.64-7.85 6.64-2.02 0-3.63-.65-4.67-1.88-1.03-1.22-1.42-2.95-1.09-4.89.63-3.94 3.83-6.69 7.79-6.69 1.98 0 3.58.65 4.64 1.9 1.07 1.25 1.49 3 1.18 4.92z"></path><path class="prefix__st2" d="M137.5 184.1h-6.99c-.67 0-1.29.33-1.67.89l-9.64 14.2-4.09-13.65a2.025 2.025 0 00-1.93-1.44h-6.87c-.83 0-1.41.82-1.15 1.6l7.7 22.6-7.24 10.22c-.57.8.01 1.91.99 1.91h6.98c.66 0 1.28-.32 1.66-.87L138.49 186c.56-.81-.01-1.9-.99-1.9z"></path><path class="prefix__st0" d="M212.26 171.68l-5.96 37.93c-.12.73.45 1.4 1.2 1.4h6c.99 0 1.84-.72 1.99-1.7l5.88-37.25c.12-.73-.45-1.4-1.2-1.4h-6.71c-.6 0-1.11.43-1.2 1.02z"></path><g><path class="prefix__st0" d="M173.29 66.2c1.47-9.38-.01-15.76-5.08-21.53-5.58-6.36-15.67-9.09-28.57-9.09h-37.46c-2.64 0-4.88 1.92-5.29 4.52l-15.6 98.91a3.218 3.218 0 003.18 3.72h23.13l-1.6 10.12a2.81 2.81 0 002.78 3.25h19.49c2.31 0 4.27-1.68 4.63-3.96l.19-.99 3.67-23.29.24-1.29a4.687 4.687 0 014.63-3.96h2.92c18.88 0 33.67-7.67 37.99-29.86 1.81-9.27.87-17.01-3.9-22.45-1.46-1.63-3.25-2.99-5.35-4.1"></path><path d="M173.29 66.2c1.47-9.38-.01-15.76-5.08-21.53-5.58-6.36-15.67-9.09-28.57-9.09h-37.46c-2.64 0-4.88 1.92-5.29 4.52l-15.6 98.91a3.218 3.218 0 003.18 3.72h23.13l5.81-36.84-.18 1.16a5.332 5.332 0 015.27-4.52h10.99c21.59 0 38.49-8.77 43.43-34.13.13-.76.26-1.49.37-2.2" fill="#002169"></path><path class="prefix__st2" d="M119.64 66.32a4.682 4.682 0 012.61-3.5c.62-.29 1.3-.46 2.02-.46h29.36c3.48 0 6.72.23 9.69.71.85.14 1.67.29 2.47.47s1.58.38 2.33.6c.38.11.75.23 1.11.35 1.46.48 2.81 1.05 4.06 1.71 1.47-9.38-.01-15.76-5.08-21.53-5.58-6.36-15.67-9.09-28.57-9.09h-37.46c-2.64 0-4.88 1.92-5.29 4.52l-15.6 98.91a3.218 3.218 0 003.18 3.72h23.13l5.81-36.84 6.23-39.57z"></path></g></svg>