<svg xmlns="http://www.w3.org/2000/svg" id="prefix__Layer_1" x="0" y="0" viewBox="0 0 256 256" xml:space="preserve"><style></style><path id="prefix__XMLID_00000053511078119385385170000018250021913500073406_" d="M56.31 93.58c-2.65 3.13-6.88 5.6-11.12 5.25-.53-4.24 1.54-8.74 3.97-11.52 2.65-3.22 7.28-5.52 11.03-5.69.45 4.41-1.27 8.73-3.88 11.96m3.84 6.09c-6.13-.35-11.39 3.49-14.3 3.49-2.96 0-7.41-3.31-12.27-3.22-6.31.09-12.18 3.66-15.4 9.36-6.62 11.39-1.72 28.25 4.68 37.51 3.13 4.59 6.88 9.62 11.83 9.44 4.68-.18 6.53-3.05 12.18-3.05 5.69 0 7.33 3.05 12.27 2.96 5.12-.09 8.34-4.59 11.47-9.18 3.57-5.21 5.03-10.28 5.12-10.55-.09-.09-9.89-3.84-9.97-15.14-.09-9.44 7.72-13.95 8.08-14.21-4.42-6.53-11.3-7.24-13.69-7.41m35.44-12.8v68.8h10.68v-23.52h14.78c13.5 0 22.99-9.27 22.99-22.68s-9.31-22.6-22.64-22.6H95.59zm10.68 9h12.31c9.27 0 14.56 4.94 14.56 13.64s-5.3 13.68-14.61 13.68h-12.27V95.87zm57.29 60.33c6.71 0 12.93-3.4 15.76-8.78h.22v8.25h9.89v-34.25c0-9.93-7.94-16.33-20.17-16.33-11.34 0-19.73 6.49-20.04 15.4h9.62c.79-4.24 4.72-7.02 10.11-7.02 6.53 0 10.19 3.05 10.19 8.65v3.8l-13.33.79c-12.4.75-19.11 5.83-19.11 14.65 0 8.93 6.93 14.84 16.86 14.84zm2.87-8.16c-5.69 0-9.31-2.74-9.31-6.93 0-4.33 3.49-6.84 10.15-7.24l11.87-.75V137c0 6.45-5.47 11.04-12.71 11.04zm36.19 26.34c10.42 0 15.31-3.97 19.6-16.02l18.76-52.61h-10.86l-12.58 40.65h-.22l-12.58-40.65h-11.17l18.09 50.09-.97 3.05c-1.63 5.16-4.28 7.15-9 7.15-.84 0-2.47-.09-3.13-.18v8.25c.61.19 3.26.27 4.06.27z"></path></svg>