<svg xmlns="http://www.w3.org/2000/svg" id="prefix__Layer_1" x="0" y="0" viewBox="0 0 256 256" xml:space="preserve"><style></style><path id="prefix__rect19_00000008126233103633168170000018403854217102334854_" fill="#ff5a00" d="M103.97 84.95h47.92v86.1h-47.92z"></path><path id="prefix__XMLID_00000083068725663345824780000010156661139474561161_" d="M107.16 128c0-17.49 8.22-33.02 20.84-43.05-9.29-7.3-21-11.72-33.78-11.72-30.27 0-54.76 24.49-54.76 54.76s24.49 54.76 54.76 54.76c12.78 0 24.49-4.41 33.78-11.72-12.64-9.87-20.84-25.54-20.84-43.03z" fill="#eb001b"></path><path id="prefix__path22_00000049911034651229541700000006566108755120316312_" d="M216.55 128c0 30.27-24.49 54.76-54.76 54.76-12.78 0-24.49-4.41-33.78-11.72 12.78-10.05 20.84-25.56 20.84-43.05S140.62 94.98 128 84.95c9.27-7.3 20.98-11.72 33.76-11.72 30.29.01 54.79 24.66 54.79 54.77z" fill="#f79e1b"></path></svg>