<svg xmlns="http://www.w3.org/2000/svg" id="prefix__Layer_1" x="0" y="0" viewBox="0 0 256 256" xml:space="preserve"><style>.prefix__st8{fill:#00579f}</style><g id="prefix__g4158_00000007406087055647238320000012202123935184348304_" transform="matrix(4.42996 0 0 4.42996 -81.166 -105.048)"><path id="prefix__polygon9_00000021842217390568708760000002432472949901350297_" class="prefix__st8" d="M42.87 60.19h-3.91l2.45-15.11h3.91z"></path><path id="prefix__path11_00000035521745235768403970000014707000326214500261_" class="prefix__st8" d="M57.04 45.45c-.77-.31-1.99-.64-3.5-.64-3.86 0-6.58 2.06-6.59 5-.03 2.17 1.95 3.38 3.42 4.1 1.51.74 2.03 1.22 2.03 1.88-.02 1.01-1.22 1.48-2.35 1.48-1.56 0-2.4-.24-3.67-.8l-.51-.24-.55 3.39c.92.42 2.6.79 4.36.8 4.1 0 6.77-2.03 6.8-5.16.02-1.72-1.03-3.04-3.28-4.12-1.37-.69-2.2-1.16-2.2-1.86.02-.64.71-1.3 2.25-1.3 1.27-.03 2.2.27 2.91.58l.35.16.53-3.27z"></path><path id="prefix__path13_00000143590332983961406530000015527590350450058390_" class="prefix__st8" d="M62.23 54.83l1.56-4.23c-.02.03.32-.88.51-1.45l.27 1.3s.74 3.62.9 4.37c-.6.01-2.47.01-3.24.01zm4.82-9.75h-3.02c-.93 0-1.64.27-2.04 1.25l-5.8 13.86h4.1s.67-1.86.82-2.27h5.02l.47 2.27h3.62l-3.17-15.11z"></path><path class="prefix__st8" d="M35.7 45.08l-3.83 10.3-1.78-9.03c-.22-.97-.92-1.24-1.77-1.27h-6.29l-.06.31c1.53.39 2.9.96 4.11 1.66l3.48 13.13h4.13l6.14-15.09H35.7z"></path></g></svg>